<mxfile host="Electron" agent="Mozilla/5.0 (Windows NT 10.0; Win64; x64) AppleWebKit/537.36 (KHTML, like Gecko) draw.io/28.0.6 Chrome/138.0.7204.100 Electron/37.2.3 Safari/537.36" version="28.0.6">
  <diagram name="Page-1" id="M0j_DqUz29kxkKdmtVrB">
    <mxGraphModel dx="1426" dy="841" grid="1" gridSize="10" guides="1" tooltips="1" connect="1" arrows="1" fold="1" page="1" pageScale="1" pageWidth="827" pageHeight="1169" math="0" shadow="0">
      <root>
        <mxCell id="0" />
        <mxCell id="1" parent="0" />
        <mxCell id="GXKVlWqg-FUO8ONrnMkp-32" value="" style="rounded=0;whiteSpace=wrap;html=1;strokeColor=none;" parent="1" vertex="1">
          <mxGeometry x="10" y="5" width="1120" height="585" as="geometry" />
        </mxCell>
        <mxCell id="GXKVlWqg-FUO8ONrnMkp-31" value="" style="rounded=0;whiteSpace=wrap;html=1;fillColor=#f5f5f5;fontColor=#333333;strokeColor=#666666;" parent="1" vertex="1">
          <mxGeometry x="560" y="490" width="440" height="90" as="geometry" />
        </mxCell>
        <mxCell id="GXKVlWqg-FUO8ONrnMkp-30" value="" style="rounded=0;whiteSpace=wrap;html=1;fillColor=#f5f5f5;fontColor=#333333;strokeColor=#666666;" parent="1" vertex="1">
          <mxGeometry x="20" y="20" width="1100" height="430" as="geometry" />
        </mxCell>
        <mxCell id="GXKVlWqg-FUO8ONrnMkp-29" value="" style="rounded=0;whiteSpace=wrap;html=1;" parent="1" vertex="1">
          <mxGeometry x="470" y="40" width="630" height="390" as="geometry" />
        </mxCell>
        <mxCell id="GXKVlWqg-FUO8ONrnMkp-15" value="" style="rounded=0;whiteSpace=wrap;html=1;fillColor=#dae8fc;strokeColor=#6c8ebf;" parent="1" vertex="1">
          <mxGeometry x="290" y="40" width="160" height="390" as="geometry" />
        </mxCell>
        <mxCell id="GXKVlWqg-FUO8ONrnMkp-5" style="edgeStyle=orthogonalEdgeStyle;rounded=0;orthogonalLoop=1;jettySize=auto;html=1;exitX=1;exitY=0.5;exitDx=0;exitDy=0;entryX=0;entryY=0.5;entryDx=0;entryDy=0;" parent="1" source="AMGYCQEvcGGorU7cepny-3" target="AMGYCQEvcGGorU7cepny-8" edge="1">
          <mxGeometry relative="1" as="geometry" />
        </mxCell>
        <mxCell id="GXKVlWqg-FUO8ONrnMkp-6" value="Input" style="edgeLabel;html=1;align=center;verticalAlign=middle;resizable=0;points=[];fontSize=16;labelBackgroundColor=none;" parent="GXKVlWqg-FUO8ONrnMkp-5" vertex="1" connectable="0">
          <mxGeometry x="0.275" y="-1" relative="1" as="geometry">
            <mxPoint x="-1" y="-21" as="offset" />
          </mxGeometry>
        </mxCell>
        <mxCell id="AMGYCQEvcGGorU7cepny-3" value="Local&lt;div&gt;AR Framework&lt;/div&gt;" style="html=1;dropTarget=0;whiteSpace=wrap;fillColor=#fff2cc;strokeColor=#d6b656;fontSize=16;" parent="1" vertex="1">
          <mxGeometry x="180" y="175" width="90" height="120" as="geometry" />
        </mxCell>
        <mxCell id="AMGYCQEvcGGorU7cepny-4" value="" style="shape=module;jettyWidth=8;jettyHeight=4;" parent="AMGYCQEvcGGorU7cepny-3" vertex="1">
          <mxGeometry x="1" width="20" height="20" relative="1" as="geometry">
            <mxPoint x="-27" y="7" as="offset" />
          </mxGeometry>
        </mxCell>
        <mxCell id="AMGYCQEvcGGorU7cepny-5" value="Device" style="shape=umlFrame;whiteSpace=wrap;html=1;pointerEvents=0;fontStyle=1;fontSize=13;" parent="1" vertex="1">
          <mxGeometry x="20" y="20" width="1100" height="430" as="geometry" />
        </mxCell>
        <mxCell id="AMGYCQEvcGGorU7cepny-16" style="edgeStyle=orthogonalEdgeStyle;rounded=0;orthogonalLoop=1;jettySize=auto;html=1;exitX=1;exitY=0.5;exitDx=0;exitDy=0;entryX=0;entryY=0.5;entryDx=0;entryDy=0;" parent="1" source="AMGYCQEvcGGorU7cepny-8" target="AMGYCQEvcGGorU7cepny-13" edge="1">
          <mxGeometry relative="1" as="geometry" />
        </mxCell>
        <mxCell id="AMGYCQEvcGGorU7cepny-31" value="Input&lt;div&gt;Mapping&lt;/div&gt;" style="edgeLabel;html=1;align=center;verticalAlign=middle;resizable=0;points=[];fontSize=16;labelBackgroundColor=none;" parent="AMGYCQEvcGGorU7cepny-16" vertex="1" connectable="0">
          <mxGeometry x="0.2333" y="-2" relative="1" as="geometry">
            <mxPoint x="10" y="-32" as="offset" />
          </mxGeometry>
        </mxCell>
        <mxCell id="AMGYCQEvcGGorU7cepny-8" value="Input System" style="html=1;dropTarget=0;whiteSpace=wrap;fontSize=18;fillColor=#fff2cc;strokeColor=#d6b656;" parent="1" vertex="1">
          <mxGeometry x="334" y="175" width="80" height="120" as="geometry" />
        </mxCell>
        <mxCell id="AMGYCQEvcGGorU7cepny-9" value="" style="shape=module;jettyWidth=8;jettyHeight=4;" parent="AMGYCQEvcGGorU7cepny-8" vertex="1">
          <mxGeometry x="1" width="20" height="20" relative="1" as="geometry">
            <mxPoint x="-27" y="7" as="offset" />
          </mxGeometry>
        </mxCell>
        <mxCell id="AMGYCQEvcGGorU7cepny-11" value="Unity&lt;div&gt;Core&lt;/div&gt;" style="shape=umlFrame;whiteSpace=wrap;html=1;pointerEvents=0;fontStyle=1;fontSize=13;" parent="1" vertex="1">
          <mxGeometry x="290" y="40" width="160" height="390" as="geometry" />
        </mxCell>
        <mxCell id="AMGYCQEvcGGorU7cepny-12" value="Main Scene" style="shape=umlFrame;whiteSpace=wrap;html=1;pointerEvents=0;fontStyle=1;fontSize=13;" parent="1" vertex="1">
          <mxGeometry x="470" y="40" width="630" height="390" as="geometry" />
        </mxCell>
        <mxCell id="GXKVlWqg-FUO8ONrnMkp-9" style="edgeStyle=orthogonalEdgeStyle;rounded=0;orthogonalLoop=1;jettySize=auto;html=1;exitX=1;exitY=0.5;exitDx=0;exitDy=0;entryX=0;entryY=0.5;entryDx=0;entryDy=0;" parent="1" source="AMGYCQEvcGGorU7cepny-13" target="GXKVlWqg-FUO8ONrnMkp-7" edge="1">
          <mxGeometry relative="1" as="geometry" />
        </mxCell>
        <mxCell id="GXKVlWqg-FUO8ONrnMkp-10" value="Input Mapping" style="edgeLabel;html=1;align=center;verticalAlign=middle;resizable=0;points=[];fontSize=16;labelBackgroundColor=none;" parent="GXKVlWqg-FUO8ONrnMkp-9" vertex="1" connectable="0">
          <mxGeometry x="0.0375" y="-1" relative="1" as="geometry">
            <mxPoint x="-66" y="-43" as="offset" />
          </mxGeometry>
        </mxCell>
        <mxCell id="AMGYCQEvcGGorU7cepny-13" value="AR Foundation" style="html=1;dropTarget=0;whiteSpace=wrap;fontSize=17;fillColor=#fff2cc;strokeColor=#d6b656;" parent="1" vertex="1">
          <mxGeometry x="550" y="175" width="100" height="120" as="geometry" />
        </mxCell>
        <mxCell id="AMGYCQEvcGGorU7cepny-14" value="" style="shape=module;jettyWidth=8;jettyHeight=4;" parent="AMGYCQEvcGGorU7cepny-13" vertex="1">
          <mxGeometry x="1" width="20" height="20" relative="1" as="geometry">
            <mxPoint x="-27" y="7" as="offset" />
          </mxGeometry>
        </mxCell>
        <mxCell id="GXKVlWqg-FUO8ONrnMkp-27" style="edgeStyle=orthogonalEdgeStyle;rounded=0;orthogonalLoop=1;jettySize=auto;html=1;exitX=0;exitY=0.5;exitDx=0;exitDy=0;entryX=1;entryY=0.5;entryDx=0;entryDy=0;" parent="1" source="AMGYCQEvcGGorU7cepny-22" target="GXKVlWqg-FUO8ONrnMkp-7" edge="1">
          <mxGeometry relative="1" as="geometry" />
        </mxCell>
        <mxCell id="GXKVlWqg-FUO8ONrnMkp-28" value="Current&lt;div&gt;State&lt;/div&gt;" style="edgeLabel;html=1;align=center;verticalAlign=middle;resizable=0;points=[];fontSize=16;labelBackgroundColor=none;" parent="GXKVlWqg-FUO8ONrnMkp-27" vertex="1" connectable="0">
          <mxGeometry x="0.1455" y="1" relative="1" as="geometry">
            <mxPoint x="13" y="24" as="offset" />
          </mxGeometry>
        </mxCell>
        <mxCell id="AMGYCQEvcGGorU7cepny-22" value="Local Object" style="html=1;whiteSpace=wrap;fontSize=18;fillColor=#d5e8d4;strokeColor=#82b366;" parent="1" vertex="1">
          <mxGeometry x="960" y="65" width="120" height="50" as="geometry" />
        </mxCell>
        <mxCell id="AMGYCQEvcGGorU7cepny-24" value="Lightship Server" style="shape=umlFrame;whiteSpace=wrap;html=1;pointerEvents=0;fontStyle=1;fontSize=13;" parent="1" vertex="1">
          <mxGeometry x="560" y="490" width="440" height="90" as="geometry" />
        </mxCell>
        <mxCell id="AMGYCQEvcGGorU7cepny-26" value="Network Object" style="html=1;whiteSpace=wrap;fontSize=18;fillColor=#d5e8d4;strokeColor=#82b366;" parent="1" vertex="1">
          <mxGeometry x="730" y="510" width="110" height="50" as="geometry" />
        </mxCell>
        <mxCell id="GXKVlWqg-FUO8ONrnMkp-21" style="edgeStyle=orthogonalEdgeStyle;rounded=0;orthogonalLoop=1;jettySize=auto;html=1;exitX=0.5;exitY=0;exitDx=0;exitDy=0;entryX=0.5;entryY=1;entryDx=0;entryDy=0;" parent="1" source="AMGYCQEvcGGorU7cepny-43" target="AMGYCQEvcGGorU7cepny-22" edge="1">
          <mxGeometry relative="1" as="geometry" />
        </mxCell>
        <mxCell id="GXKVlWqg-FUO8ONrnMkp-22" value="State&lt;div&gt;Update&lt;/div&gt;" style="edgeLabel;html=1;align=center;verticalAlign=middle;resizable=0;points=[];fontSize=16;" parent="GXKVlWqg-FUO8ONrnMkp-21" vertex="1" connectable="0">
          <mxGeometry x="0.2" y="-2" relative="1" as="geometry">
            <mxPoint x="28" y="9" as="offset" />
          </mxGeometry>
        </mxCell>
        <mxCell id="AMGYCQEvcGGorU7cepny-43" value="Shared&lt;div&gt;Objects&lt;/div&gt;" style="ellipse;whiteSpace=wrap;html=1;aspect=fixed;fontSize=18;" parent="1" vertex="1">
          <mxGeometry x="980" y="180" width="80" height="80" as="geometry" />
        </mxCell>
        <mxCell id="GXKVlWqg-FUO8ONrnMkp-3" style="edgeStyle=orthogonalEdgeStyle;rounded=0;orthogonalLoop=1;jettySize=auto;html=1;exitX=1;exitY=0.5;exitDx=0;exitDy=0;entryX=0;entryY=0.5;entryDx=0;entryDy=0;" parent="1" source="GXKVlWqg-FUO8ONrnMkp-2" target="AMGYCQEvcGGorU7cepny-3" edge="1">
          <mxGeometry relative="1" as="geometry" />
        </mxCell>
        <mxCell id="GXKVlWqg-FUO8ONrnMkp-4" value="Input" style="edgeLabel;html=1;align=center;verticalAlign=middle;resizable=0;points=[];fontSize=16;labelBackgroundColor=none;" parent="GXKVlWqg-FUO8ONrnMkp-3" vertex="1" connectable="0">
          <mxGeometry x="-0.25" relative="1" as="geometry">
            <mxPoint x="10" y="-20" as="offset" />
          </mxGeometry>
        </mxCell>
        <mxCell id="GXKVlWqg-FUO8ONrnMkp-2" value="Device Core" style="rounded=0;whiteSpace=wrap;html=1;fontSize=18;fillColor=#dae8fc;strokeColor=#6c8ebf;" parent="1" vertex="1">
          <mxGeometry x="30" y="195" width="90" height="80" as="geometry" />
        </mxCell>
        <mxCell id="GXKVlWqg-FUO8ONrnMkp-13" style="edgeStyle=orthogonalEdgeStyle;rounded=0;orthogonalLoop=1;jettySize=auto;html=1;exitX=0.5;exitY=1;exitDx=0;exitDy=0;entryX=0.5;entryY=0;entryDx=0;entryDy=0;" parent="1" source="GXKVlWqg-FUO8ONrnMkp-7" target="GXKVlWqg-FUO8ONrnMkp-11" edge="1">
          <mxGeometry relative="1" as="geometry" />
        </mxCell>
        <mxCell id="GXKVlWqg-FUO8ONrnMkp-14" value="Interaction&lt;div&gt;Callback&lt;/div&gt;" style="edgeLabel;html=1;align=center;verticalAlign=middle;resizable=0;points=[];fontSize=15;labelBackgroundColor=none;" parent="GXKVlWqg-FUO8ONrnMkp-13" vertex="1" connectable="0">
          <mxGeometry x="-0.32" relative="1" as="geometry">
            <mxPoint x="-45" y="10" as="offset" />
          </mxGeometry>
        </mxCell>
        <mxCell id="GXKVlWqg-FUO8ONrnMkp-7" value="Tracking Manager" style="html=1;dropTarget=0;whiteSpace=wrap;fontSize=17;fillColor=#fff2cc;strokeColor=#d6b656;" parent="1" vertex="1">
          <mxGeometry x="720" y="50" width="130" height="80" as="geometry" />
        </mxCell>
        <mxCell id="GXKVlWqg-FUO8ONrnMkp-8" value="" style="shape=module;jettyWidth=8;jettyHeight=4;" parent="GXKVlWqg-FUO8ONrnMkp-7" vertex="1">
          <mxGeometry x="1" width="20" height="20" relative="1" as="geometry">
            <mxPoint x="-27" y="7" as="offset" />
          </mxGeometry>
        </mxCell>
        <mxCell id="GXKVlWqg-FUO8ONrnMkp-19" style="edgeStyle=orthogonalEdgeStyle;rounded=0;orthogonalLoop=1;jettySize=auto;html=1;exitX=0.5;exitY=1;exitDx=0;exitDy=0;entryX=0.5;entryY=0;entryDx=0;entryDy=0;" parent="1" source="GXKVlWqg-FUO8ONrnMkp-11" target="GXKVlWqg-FUO8ONrnMkp-17" edge="1">
          <mxGeometry relative="1" as="geometry" />
        </mxCell>
        <mxCell id="GXKVlWqg-FUO8ONrnMkp-20" value="Interaction&lt;div&gt;Callback&lt;/div&gt;" style="edgeLabel;html=1;align=center;verticalAlign=middle;resizable=0;points=[];fontSize=16;labelBackgroundColor=none;" parent="GXKVlWqg-FUO8ONrnMkp-19" vertex="1" connectable="0">
          <mxGeometry x="-0.0667" y="-3" relative="1" as="geometry">
            <mxPoint x="-42" as="offset" />
          </mxGeometry>
        </mxCell>
        <mxCell id="GXKVlWqg-FUO8ONrnMkp-11" value="Session Manager" style="html=1;dropTarget=0;whiteSpace=wrap;fontSize=17;fillColor=#fff2cc;strokeColor=#d6b656;" parent="1" vertex="1">
          <mxGeometry x="720" y="190" width="130" height="80" as="geometry" />
        </mxCell>
        <mxCell id="GXKVlWqg-FUO8ONrnMkp-12" value="" style="shape=module;jettyWidth=8;jettyHeight=4;" parent="GXKVlWqg-FUO8ONrnMkp-11" vertex="1">
          <mxGeometry x="1" width="20" height="20" relative="1" as="geometry">
            <mxPoint x="-27" y="7" as="offset" />
          </mxGeometry>
        </mxCell>
        <mxCell id="GXKVlWqg-FUO8ONrnMkp-23" style="edgeStyle=orthogonalEdgeStyle;rounded=0;orthogonalLoop=1;jettySize=auto;html=1;exitX=1;exitY=0.5;exitDx=0;exitDy=0;entryX=0.5;entryY=1;entryDx=0;entryDy=0;" parent="1" source="GXKVlWqg-FUO8ONrnMkp-17" target="AMGYCQEvcGGorU7cepny-43" edge="1">
          <mxGeometry relative="1" as="geometry" />
        </mxCell>
        <mxCell id="GXKVlWqg-FUO8ONrnMkp-24" value="State Update" style="edgeLabel;html=1;align=center;verticalAlign=middle;resizable=0;points=[];fontSize=16;" parent="GXKVlWqg-FUO8ONrnMkp-23" vertex="1" connectable="0">
          <mxGeometry x="-0.3917" y="1" relative="1" as="geometry">
            <mxPoint x="-5" y="-19" as="offset" />
          </mxGeometry>
        </mxCell>
        <mxCell id="GXKVlWqg-FUO8ONrnMkp-25" style="edgeStyle=orthogonalEdgeStyle;rounded=0;orthogonalLoop=1;jettySize=auto;html=1;exitX=0.5;exitY=1;exitDx=0;exitDy=0;entryX=0.5;entryY=0;entryDx=0;entryDy=0;" parent="1" source="GXKVlWqg-FUO8ONrnMkp-17" target="AMGYCQEvcGGorU7cepny-26" edge="1">
          <mxGeometry relative="1" as="geometry" />
        </mxCell>
        <mxCell id="GXKVlWqg-FUO8ONrnMkp-26" value="State Change" style="edgeLabel;html=1;align=center;verticalAlign=middle;resizable=0;points=[];fontSize=16;labelBackgroundColor=none;" parent="GXKVlWqg-FUO8ONrnMkp-25" vertex="1" connectable="0">
          <mxGeometry x="0.22" y="-1" relative="1" as="geometry">
            <mxPoint x="56" y="-1" as="offset" />
          </mxGeometry>
        </mxCell>
        <mxCell id="GXKVlWqg-FUO8ONrnMkp-17" value="Shared AR" style="html=1;dropTarget=0;whiteSpace=wrap;fontSize=17;fillColor=#fff2cc;strokeColor=#d6b656;" parent="1" vertex="1">
          <mxGeometry x="720" y="330" width="130" height="80" as="geometry" />
        </mxCell>
        <mxCell id="GXKVlWqg-FUO8ONrnMkp-18" value="" style="shape=module;jettyWidth=8;jettyHeight=4;" parent="GXKVlWqg-FUO8ONrnMkp-17" vertex="1">
          <mxGeometry x="1" width="20" height="20" relative="1" as="geometry">
            <mxPoint x="-27" y="7" as="offset" />
          </mxGeometry>
        </mxCell>
      </root>
    </mxGraphModel>
  </diagram>
</mxfile>
